<svg id="Capa_1" data-name="Capa 1" xmlns="http://www.w3.org/2000/svg" viewBox="0 0 1172.43 772.09"><defs><style>.cls-1{fill:#4b464b;}.cls-2{fill:#809193;}.cls-3{fill:#d63d49;}.cls-4{fill:#ff5464;}.cls-5{fill:#afb3b0;}</style></defs><title>Elementos_Svg_a</title><path class="cls-1" d="M110.82,677.42a6,6,0,0,1-2.19-4.87V571.8a6,6,0,0,1,2.19-4.87,10.67,10.67,0,0,1,12,0A6,6,0,0,1,125,571.8V672.55a6,6,0,0,1-2.19,4.87,10.72,10.72,0,0,1-12,0Z"/><path class="cls-1" d="M290.44,566.93a6.32,6.32,0,0,1,2,4.87V672.55a6.16,6.16,0,0,1-2.1,4.87,8.64,8.64,0,0,1-5.88,1.83,9.14,9.14,0,0,1-6.59-2.71L195,587.93v84.62a6.15,6.15,0,0,1-2.09,4.87,8.35,8.35,0,0,1-5.69,1.83,8,8,0,0,1-5.59-1.83,6.31,6.31,0,0,1-2-4.87V571.8a6.15,6.15,0,0,1,2.09-4.87,8.68,8.68,0,0,1,5.89-1.84,9.37,9.37,0,0,1,6.78,2.72l82.63,88.61V571.8a6.19,6.19,0,0,1,2.09-4.87,8.37,8.37,0,0,1,5.69-1.84A8,8,0,0,1,290.44,566.93Z"/><path class="cls-1" d="M383.35,677.42a5.91,5.91,0,0,1-2.3-4.87V577.07H338.14a9.43,9.43,0,0,1-5.59-1.44,5.32,5.32,0,0,1,0-8.3,9.43,9.43,0,0,1,5.59-1.44H440.53a9.4,9.4,0,0,1,5.58,1.44,5.31,5.31,0,0,1,0,8.3,9.4,9.4,0,0,1-5.58,1.44H397.61v95.48a6,6,0,0,1-2.19,4.87,9.08,9.08,0,0,1-6,1.83A9.44,9.44,0,0,1,383.35,677.42Z"/><path class="cls-1" d="M488.72,676.7a5.56,5.56,0,0,1-2.3-4.63V572.28a5.55,5.55,0,0,1,2.3-4.63,9.77,9.77,0,0,1,6.09-1.76h74.64a9.43,9.43,0,0,1,5.59,1.44,5,5,0,0,1,0,8,9.43,9.43,0,0,1-5.59,1.44H502.59v39.12h62.87A9.47,9.47,0,0,1,571,617.3a5,5,0,0,1,0,8,9.4,9.4,0,0,1-5.58,1.43H502.59V667.6h66.86A9.91,9.91,0,0,1,575,669a5.09,5.09,0,0,1,0,8.07,9.43,9.43,0,0,1-5.59,1.43H494.81A9.77,9.77,0,0,1,488.72,676.7Z"/><path class="cls-1" d="M731.2,621.29a4.74,4.74,0,0,1,1.9,4V665c0,2.56-.5,4.47-1.5,5.75s-2.83,2.29-5.48,3a106.15,106.15,0,0,1-19.36,4.31,162.77,162.77,0,0,1-22.76,1.6q-21,0-36.12-6.86t-23.25-19.8q-8.08-12.93-8.08-31,0-17.72,8-30.65a51.77,51.77,0,0,1,23-19.88q15-6.94,35.13-6.95a93.73,93.73,0,0,1,25.94,3.44,58.72,58.72,0,0,1,20.16,9.82q3.39,2.71,3.39,5.59a5.47,5.47,0,0,1-1.6,3.91,5.29,5.29,0,0,1-4,1.67,11.3,11.3,0,0,1-5.58-1.91,80.08,80.08,0,0,0-18.77-8.86,68.45,68.45,0,0,0-19.35-2.48q-23.76,0-36.43,12t-12.67,34.32q0,22.85,12.87,34.73t37.82,11.89a119.06,119.06,0,0,0,33.73-4.47V630.08H689a9,9,0,0,1-5.39-1.44,4.46,4.46,0,0,1,0-7.43,9.49,9.49,0,0,1,5.39-1.35h37.32A7.91,7.91,0,0,1,731.2,621.29Z"/><path class="cls-1" d="M895,674a4.52,4.52,0,0,1-2.3,3.91,9.3,9.3,0,0,1-5.29,1.52,8.73,8.73,0,0,1-7.18-3.19l-26.75-33.85q-5.19-6.54-10.77-9t-15.17-2.47H802.35v41.67a6,6,0,0,1-2.19,4.87,8.75,8.75,0,0,1-5.79,1.83,9.08,9.08,0,0,1-6-1.83,6,6,0,0,1-2.19-4.87V572.28a5.54,5.54,0,0,1,2.29-4.63,9.77,9.77,0,0,1,6.09-1.76h49.5q22.93,0,35,8.15t12.08,24q0,13.39-9.68,21.55t-27.65,9.9a26.42,26.42,0,0,1,9,4.15,40.3,40.3,0,0,1,8,8l22.75,28.74A5.84,5.84,0,0,1,895,674Zm-52.29-54q16.37,0,24.45-5.43t8.08-16.45q0-10.85-8-16.12t-24.55-5.27H802.35V620Z"/><path class="cls-1" d="M1063.8,673.66a4.75,4.75,0,0,1-2.3,4,9.4,9.4,0,0,1-5.49,1.59c-3.32,0-5.65-1.27-7-3.83l-14.17-25.87H959.62l-14.37,25.87c-1.33,2.56-3.66,3.83-7,3.83a9.44,9.44,0,0,1-5.58-1.68,4.86,4.86,0,0,1-2.4-4.07,4.71,4.71,0,0,1,.8-2.55l57.08-101.54a7.62,7.62,0,0,1,3.59-3.36,12.22,12.22,0,0,1,5.19-1.12,11.87,11.87,0,0,1,5.39,1.2,8.31,8.31,0,0,1,3.59,3.28L1063,671A5.06,5.06,0,0,1,1063.8,673.66Zm-98.19-35h63.26l-31.73-57.32Z"/><rect class="cls-2" x="539.34" y="320.65" width="176.57" height="69.88" transform="translate(435.27 -339.65) rotate(45)"/><rect class="cls-3" x="501.35" y="171.23" width="221.38" height="87.61" transform="translate(331.32 -369.79) rotate(45)"/><rect class="cls-3" x="344.84" y="327.74" width="221.38" height="87.61" transform="translate(396.15 -213.28) rotate(45)"/><rect class="cls-2" x="717.76" y="177.25" width="70.05" height="106.92" transform="translate(57.36 599.89) rotate(-45)"/><line x1="619.26" y1="284.22" x2="624.7" y2="289.65"/><rect class="cls-4" x="568.25" y="217.09" width="87.61" height="308.95" rx="42.21" transform="translate(442 -323.96) rotate(45)"/><rect class="cls-2" x="664.42" y="195.57" width="176.57" height="69.88" transform="translate(383.46 -464.73) rotate(45)"/><rect class="cls-4" x="411.71" y="60.55" width="87.61" height="308.95" rx="42.21" transform="translate(285.46 -259.12) rotate(45)"/><path class="cls-4" d="M351.91,329.88l-2.5-2.5c-13.94-13.94-18.7-32-10.58-40.09l189-189c8.12-8.12,26.16-3.36,40.09,10.58l2.5,2.5c13.93,13.93,18.7,32,10.58,40.09l-189,189C383.88,348.58,365.84,343.81,351.91,329.88Z"/><rect class="cls-4" x="568.05" y="216.89" width="87.61" height="308.95" rx="42.21" transform="translate(781.91 1066.6) rotate(-135)"/><path class="cls-4" d="M714.9,256l2.45,2.44c13.62,13.63,18.13,31.42,10,39.53l-189,189c-8.11,8.11-25.9,3.6-39.52-10l-2.45-2.45c-13.63-13.63-18.14-31.41-10-39.53l189-188.95C683.49,237.81,701.27,242.32,714.9,256Z"/><rect class="cls-5" x="592.67" y="107.21" width="70.02" height="246.93" rx="33.74" transform="translate(346.96 -376.27) rotate(45)"/><path class="cls-5" d="M545.64,323.25l-1.47-1.48c-10.72-10.71-14.12-24.84-7.56-31.4L687.38,139.61c6.55-6.56,20.68-3.16,31.39,7.56l1.48,1.47c10.71,10.71,14.11,24.84,7.56,31.4L577,330.8C570.48,337.36,556.36,334,545.64,323.25Z"/><rect class="cls-5" x="717.61" y="232.09" width="69.98" height="246.76" rx="33.71" transform="translate(471.79 -428.05) rotate(45)"/><path class="cls-5" d="M662.37,439.74l-1.53-1.53C649.7,427.07,646,412.6,652.51,406L803.16,255.39c6.56-6.55,21-2.81,32.17,8.33l1.53,1.53c11.13,11.13,14.88,25.6,8.32,32.16L694.53,448.06C688,454.62,673.5,450.87,662.37,439.74Z"/></svg>